{"title":"Humpty Sharma Ki Dulhania (2014) [1CD] Blu-Ray Rip Xvid Mp3 E.Su","uid":11019919,"size":743804159,"categoryP":"video","categoryS":"movies","magnet":"?xt=urn:btih:5787ddc594e104c9000a23da1ce777583140d8af&amp;dn=Humpty+Sharma+Ki+Dulhania+%282014%29+%5B1CD%5D+Blu-Ray+Rip+Xvid+Mp3+E.Su&amp;tr=udp%3A%2F%2Ftracker.openbittorrent.com%3A80&amp;tr=udp%3A%2F%2Fopen.demonii.com%3A1337&amp;tr=udp%3A%2F%2Ftracker.coppersurfer.tk%3A6969&amp;tr=udp%3A%2F%2Fexodus.desync.com%3A6969","seeders":1,"leechers":2,"uploader":"inovai","files":20,"time":1410550050,"description":"Humpty Sharma Ki Dulhania (2014) [1CD] Blu-Ray Rip Xvid Mp3 E.Sub TeamTNT \n\nCover:\n &lt;a href=&quot;\nhttp://forum.primetimeshow.in/viewtopic.php?f=7&amp;t=674&quot; rel=&quot;nofollow&quot; target=&quot;_NEW&quot;&gt;\nhttp://forum.primetimeshow.in/viewtopic.php?f=7&amp;t=674&lt;/a&gt;\n\nMovie:............Humpty Sharma Ki Dulhania\nSource: ..........BD50 @ TeamTNT\nYear:.............2014\n\nScreenshots:\n &lt;a href=&quot;\nhttp://m.primetimeshow.in/share-C0EC_54132C75.html&quot; rel=&quot;nofollow&quot; target=&quot;_NEW&quot;&gt;\nhttp://m.primetimeshow.in/share-C0EC_54132C75.html&lt;/a&gt;\n &lt;a href=&quot;\nhttp://m.primetimeshow.in/share-2EA6_54132C75.html&quot; rel=&quot;nofollow&quot; target=&quot;_NEW&quot;&gt;\nhttp://m.primetimeshow.in/share-2EA6_54132C75.html&lt;/a&gt;\n &lt;a href=&quot;\nhttp://m.primetimeshow.in/share-FFDF_54132C75.html&quot; rel=&quot;nofollow&quot; target=&quot;_NEW&quot;&gt;\nhttp://m.primetimeshow.in/share-FFDF_54132C75.html&lt;/a&gt;\n &lt;a href=&quot;\nhttp://m.primetimeshow.in/share-8FB3_54132C75.html&quot; rel=&quot;nofollow&quot; target=&quot;_NEW&quot;&gt;\nhttp://m.primetimeshow.in/share-8FB3_54132C75.html&lt;/a&gt;\n &lt;a href=&quot;\nhttp://m.primetimeshow.in/share-023B_54132C75.html&quot; rel=&quot;nofollow&quot; target=&quot;_NEW&quot;&gt;\nhttp://m.primetimeshow.in/share-023B_54132C75.html&lt;/a&gt;\n\nGeneral\nComplete name : E:Humpty Sharma Ki Dulhania.avi\nFormat : AVI\nFormat/Info : Audio Video Interleave\nFile size : 697 MiB\nDuration : 2h 12mn\nOverall bit rate : 736 Kbps\n\nVideo\nID : 0\nFormat : MPEG-4 Visual\nFormat profile : Advanced Simple@L5\nFormat settings, BVOP : 2\nFormat settings, QPel : No\nFormat settings, GMC : No warppoints\nFormat settings, Matrix : Default (H.263)\nCodec ID : XVID\nCodec ID/Hint : XviD\nDuration : 2h 12mn\nBit rate : 630 Kbps\nWidth : 640 pixels\nHeight : 272 pixels\nDisplay aspect ratio : 2.35:1\nFrame rate : 24.000 fps\nColor space : YUV\nChroma subsampling : 4:2:0\nBit depth : 8 bits\nScan type : Progressive\nCompression mode : Lossy\nBits/(Pixel*Frame) : 0.151\nStream size : 597 MiB (86%)\nWriting library : XviD 1.2.1 (UTC 2008-12-04)\n\nAudio\nID : 1\nFormat : MPEG Audio\nFormat version : Version 1\nFormat profile : Layer 3\nMode : Joint stereo\nMode extension : MS Stereo\nCodec ID : 55\nCodec ID/Hint : MP3\nDuration : 2h 12mn\nBit rate mode : Constant\nBit rate : 96.0 Kbps\nChannel(s) : 2 channels\nSampling rate : 32.0 KHz\nCompression mode : Lossy\nStream size : 90.8 MiB (13%)\nAlignment : Aligned on interleaves\nInterleave, duration : 36 ms (0.86 video frame)\nInterleave, preload duration : 216 ms\nTitle : F1_T3_Audio - Hindi_new\nWriting library : LAME3.99r\nEncoding settings : -m j -V 4 -q 2 -lowpass 15.1 -b 96\n\nSample included in torrent!\n\nTHanks to TeamTNT !!\n\nSeed n Enjoy!!","torrent":{"xt":"urn:btih:5787ddc594e104c9000a23da1ce777583140d8af","amp;dn":"Humpty+Sharma+Ki+Dulhania+%282014%29+%5B1CD%5D+Blu-Ray+Rip+Xvid+Mp3+E.Su","amp;tr":["udp%3A%2F%2Ftracker.openbittorrent.com%3A80","udp%3A%2F%2Fopen.demonii.com%3A1337","udp%3A%2F%2Ftracker.coppersurfer.tk%3A6969","udp%3A%2F%2Fexodus.desync.com%3A6969"],"infoHash":"5787ddc594e104c9000a23da1ce777583140d8af","infoHashBuffer":{"type":"Buffer","data":[87,135,221,197,148,225,4,201,0,10,35,218,28,231,119,88,49,64,216,175]},"announce":[],"urlList":[]}}